<svg id="svg" version="1.1" xmlns="http://www.w3.org/2000/svg" xmlns:xlink="http://www.w3.org/1999/xlink" width="400" height="384.71160528144543" viewBox="0, 0, 400,384.71160528144543"><g id="svgg"><path id="path0" d="M258.725 247.591 C 259.070 247.657,259.571 247.655,259.836 247.585 C 260.102 247.515,259.819 247.461,259.208 247.464 C 258.596 247.467,258.379 247.524,258.725 247.591 M292.078 247.590 C 292.422 247.656,292.985 247.656,293.329 247.590 C 293.673 247.524,293.391 247.470,292.703 247.470 C 292.015 247.470,291.734 247.524,292.078 247.590 M249.131 247.864 C 249.399 247.934,249.837 247.934,250.104 247.864 C 250.372 247.794,250.153 247.736,249.618 247.736 C 249.083 247.736,248.864 247.794,249.131 247.864 M11.605 257.602 C 12.102 257.664,12.915 257.664,13.412 257.602 C 13.909 257.540,13.502 257.490,12.509 257.490 C 11.515 257.490,11.108 257.540,11.605 257.602 M23.423 257.878 C 23.845 257.942,24.471 257.941,24.813 257.875 C 25.155 257.809,24.809 257.756,24.044 257.758 C 23.280 257.761,23.000 257.815,23.423 257.878 M33.843 258.153 C 34.187 258.219,34.750 258.219,35.094 258.153 C 35.438 258.087,35.156 258.033,34.468 258.033 C 33.780 258.033,33.499 258.087,33.843 258.153 M44.271 258.434 C 44.693 258.498,45.319 258.497,45.661 258.431 C 46.002 258.365,45.657 258.312,44.892 258.314 C 44.128 258.316,43.848 258.370,44.271 258.434 M54.556 258.712 C 54.978 258.776,55.604 258.775,55.945 258.709 C 56.287 258.643,55.942 258.590,55.177 258.592 C 54.413 258.594,54.133 258.648,54.556 258.712 M64.698 258.987 C 65.042 259.053,65.605 259.053,65.949 258.987 C 66.293 258.921,66.011 258.867,65.323 258.867 C 64.635 258.867,64.354 258.921,64.698 258.987 M74.705 259.265 C 75.049 259.331,75.612 259.331,75.956 259.265 C 76.300 259.199,76.018 259.145,75.330 259.145 C 74.642 259.145,74.361 259.199,74.705 259.265 M84.434 259.543 C 84.778 259.609,85.341 259.609,85.685 259.543 C 86.028 259.477,85.747 259.422,85.059 259.422 C 84.371 259.422,84.090 259.477,84.434 259.543 M93.607 259.821 C 93.951 259.887,94.514 259.887,94.858 259.821 C 95.202 259.755,94.920 259.700,94.232 259.700 C 93.544 259.700,93.263 259.755,93.607 259.821 M102.505 260.099 C 102.851 260.166,103.351 260.163,103.617 260.094 C 103.883 260.024,103.600 259.970,102.988 259.973 C 102.377 259.976,102.159 260.033,102.505 260.099 M335.928 279.551 C 334.552 279.593,330.424 279.819,326.755 280.053 C 323.085 280.287,318.645 280.551,316.887 280.639 C 313.692 280.800,313.289 280.828,309.382 281.162 C 308.235 281.260,306.796 281.382,306.185 281.432 C 303.709 281.636,298.372 282.172,295.066 282.550 C 294.302 282.637,293.051 282.775,292.286 282.856 C 291.522 282.937,290.521 283.056,290.063 283.119 C 289.604 283.183,288.603 283.301,287.839 283.381 C 286.462 283.525,284.724 283.727,283.113 283.930 C 281.186 284.173,279.438 284.403,278.527 284.532 C 277.247 284.714,276.135 284.863,274.774 285.033 C 273.605 285.179,272.002 285.412,270.605 285.640 C 270.146 285.714,269.395 285.829,268.937 285.895 C 268.478 285.961,267.665 286.078,267.130 286.156 C 266.595 286.233,265.657 286.364,265.045 286.448 C 264.434 286.531,263.621 286.656,263.238 286.726 C 262.856 286.795,261.981 286.920,261.293 287.002 C 258.432 287.346,244.005 289.825,238.638 290.896 C 238.332 290.957,237.707 291.082,237.248 291.174 C 236.789 291.266,236.101 291.381,235.719 291.430 C 235.337 291.479,235.024 291.552,235.024 291.591 C 235.024 291.631,234.712 291.700,234.329 291.746 C 233.947 291.791,233.322 291.893,232.940 291.973 C 232.557 292.052,231.682 292.195,230.994 292.291 C 230.306 292.387,228.930 292.647,227.936 292.869 C 225.668 293.376,225.217 293.471,224.183 293.662 C 223.725 293.747,223.099 293.872,222.794 293.940 C 222.488 294.008,221.862 294.134,221.404 294.218 C 220.945 294.303,220.257 294.438,219.875 294.519 C 219.493 294.599,218.992 294.679,218.763 294.695 C 218.534 294.711,218.195 294.844,218.011 294.989 C 217.826 295.134,217.576 295.193,217.455 295.119 C 217.333 295.046,215.608 295.348,213.621 295.791 C 209.763 296.651,208.938 296.827,208.061 296.982 C 207.755 297.036,207.505 297.106,207.505 297.138 C 207.505 297.171,207.192 297.249,206.810 297.313 C 205.445 297.541,205.003 297.637,205.003 297.707 C 205.003 297.746,204.753 297.818,204.448 297.867 C 204.142 297.915,203.454 298.025,202.919 298.110 C 202.384 298.195,200.382 298.642,198.471 299.104 C 196.560 299.566,194.746 299.987,194.441 300.041 C 194.135 300.094,193.885 300.164,193.885 300.196 C 193.885 300.228,193.634 300.296,193.329 300.346 C 193.023 300.396,192.460 300.517,192.078 300.615 C 191.696 300.714,191.133 300.841,190.827 300.898 C 183.713 302.218,145.788 312.327,127.589 317.753 C 100.368 325.870,60.056 339.887,45.793 346.195 C 44.914 346.584,44.159 346.872,44.114 346.835 C 44.070 346.799,43.695 346.990,43.282 347.261 C 42.868 347.533,42.530 347.686,42.530 347.602 C 42.530 347.518,42.156 347.643,41.699 347.879 C 41.241 348.115,40.772 348.318,40.656 348.330 C 40.540 348.342,40.195 348.492,39.889 348.662 C 39.583 348.832,39.239 348.945,39.124 348.912 C 39.010 348.880,38.916 348.999,38.916 349.178 C 38.916 349.356,38.834 349.420,38.734 349.320 C 38.634 349.220,38.153 349.386,37.665 349.687 C 37.177 349.989,36.696 350.154,36.596 350.054 C 36.496 349.954,36.414 350.019,36.414 350.197 C 36.414 350.375,36.320 350.495,36.206 350.462 C 36.091 350.430,35.732 350.550,35.408 350.730 C 35.084 350.910,34.740 350.979,34.644 350.882 C 34.547 350.785,34.468 350.860,34.468 351.047 C 34.468 351.235,34.354 351.317,34.214 351.231 C 34.074 351.144,33.916 351.205,33.863 351.366 C 33.809 351.526,33.486 351.679,33.144 351.705 C 32.802 351.730,32.523 351.857,32.523 351.987 C 32.523 352.116,32.397 352.145,32.245 352.050 C 32.092 351.956,31.967 352.018,31.967 352.189 C 31.967 352.360,31.842 352.422,31.689 352.328 C 31.536 352.234,31.411 352.275,31.411 352.420 C 31.411 352.675,30.103 353.162,29.673 353.069 C 29.559 353.043,29.465 353.155,29.465 353.317 C 29.465 353.479,29.340 353.534,29.187 353.440 C 29.034 353.345,28.909 353.408,28.909 353.579 C 28.909 353.750,28.784 353.812,28.631 353.718 C 28.478 353.623,28.353 353.665,28.353 353.810 C 28.353 354.064,27.045 354.552,26.616 354.458 C 26.501 354.433,26.407 354.545,26.407 354.707 C 26.407 354.869,26.282 354.924,26.129 354.830 C 25.976 354.735,25.851 354.798,25.851 354.969 C 25.851 355.140,25.726 355.202,25.573 355.108 C 25.420 355.013,25.295 355.076,25.295 355.247 C 25.295 355.418,25.170 355.480,25.017 355.386 C 24.864 355.291,24.739 355.354,24.739 355.525 C 24.739 355.696,24.614 355.758,24.461 355.664 C 24.309 355.569,24.183 355.593,24.182 355.717 C 24.181 355.965,21.667 357.078,21.334 356.978 C 21.220 356.943,21.126 357.047,21.126 357.209 C 21.126 357.371,21.001 357.426,20.848 357.331 C 20.695 357.237,20.570 357.300,20.570 357.470 C 20.570 357.641,20.445 357.704,20.292 357.609 C 20.139 357.515,20.014 357.578,20.014 357.748 C 20.014 357.919,19.889 357.982,19.736 357.887 C 19.583 357.793,19.458 357.855,19.458 358.026 C 19.458 358.197,19.333 358.260,19.180 358.165 C 19.027 358.071,18.902 358.133,18.902 358.304 C 18.902 358.475,18.777 358.538,18.624 358.443 C 18.471 358.349,18.346 358.411,18.346 358.582 C 18.346 358.753,18.221 358.816,18.068 358.721 C 17.915 358.627,17.790 358.689,17.790 358.860 C 17.790 359.031,17.665 359.094,17.512 358.999 C 17.359 358.905,17.234 358.967,17.234 359.138 C 17.234 359.309,17.109 359.372,16.956 359.277 C 16.803 359.183,16.678 359.245,16.678 359.416 C 16.678 359.587,16.553 359.650,16.400 359.555 C 16.247 359.461,16.122 359.523,16.122 359.694 C 16.122 359.865,15.997 359.928,15.844 359.833 C 15.691 359.739,15.566 359.794,15.566 359.956 C 15.566 360.118,15.473 360.220,15.358 360.184 C 15.099 360.101,7.010 364.452,2.988 366.837 L 0.000 368.610 0.000 376.661 L 0.000 384.712 199.653 384.712 L 399.305 384.712 399.225 334.204 C 399.182 306.424,399.111 283.660,399.068 283.618 C 398.888 283.437,388.654 281.828,384.434 281.317 C 370.978 279.686,353.007 279.032,335.928 279.551 " stroke="none" fill="#c4f394" fill-rule="evenodd"></path><path id="path1" d="M396.803 243.822 C 393.563 244.104,338.084 248.020,328.771 248.624 C 323.243 248.983,321.689 248.985,316.401 248.637 C 262.283 245.076,197.796 249.144,132.731 260.225 L 124.392 261.645 117.999 261.050 C 114.482 260.723,110.605 260.390,109.382 260.310 C 105.278 260.044,30.449 257.950,9.243 257.509 L 0.000 257.316 0.000 312.969 C 0.000 343.578,0.094 368.567,0.208 368.500 C 0.323 368.432,1.283 367.850,2.342 367.206 C 35.142 347.240,107.172 321.431,180.125 303.504 C 185.705 302.132,191.272 300.762,192.495 300.458 C 227.856 291.674,283.122 282.756,315.636 280.586 C 317.165 280.484,318.592 280.261,318.809 280.089 C 319.071 279.882,321.157 279.777,325.063 279.775 C 328.287 279.774,336.366 279.663,343.016 279.530 C 362.816 279.132,378.455 280.105,393.983 282.703 C 399.682 283.656,399.444 283.568,399.444 284.714 C 399.444 285.241,399.543 285.483,399.694 285.323 C 399.841 285.168,399.855 279.790,399.729 272.272 C 399.510 259.294,399.596 244.710,399.895 243.931 C 399.986 243.695,399.952 243.520,399.821 243.542 C 399.690 243.563,398.332 243.690,396.803 243.822 " stroke="none" fill="#aceb71" fill-rule="evenodd"></path><path id="path2" d="M231.411 53.819 C 216.421 56.508,202.109 70.175,194.995 88.595 L 194.220 90.602 192.329 88.684 C 180.277 76.464,162.726 80.094,154.085 96.595 C 153.399 97.904,152.867 98.647,152.792 98.402 C 150.168 89.899,143.905 85.638,137.612 88.074 C 136.780 88.396,136.083 88.631,136.062 88.597 C 136.041 88.562,135.740 87.721,135.392 86.727 C 126.823 62.226,97.787 68.619,95.723 95.460 C 95.563 97.543,95.477 97.837,95.067 97.707 C 91.907 96.704,85.885 96.457,81.831 97.164 C 63.793 100.310,49.621 118.742,47.498 141.816 L 47.182 145.246 44.204 145.144 C 37.744 144.923,31.589 147.381,26.580 152.183 L 24.947 153.749 22.967 152.782 C 15.972 149.366,8.036 150.176,1.737 154.950 L 0.000 156.267 0.000 167.622 L -0.000 178.977 3.961 178.818 C 16.499 178.313,27.838 182.821,37.809 192.273 L 40.176 194.517 41.005 193.397 C 48.036 183.893,61.732 185.264,68.102 196.108 C 68.461 196.720,68.793 197.269,68.840 197.330 C 68.886 197.390,69.807 196.606,70.887 195.587 C 94.170 173.623,125.766 173.071,150.300 194.201 L 151.635 195.350 153.441 194.237 C 175.059 180.913,202.671 190.611,214.925 215.832 C 215.689 217.405,215.728 217.402,216.651 215.707 C 223.949 202.297,236.672 191.312,249.960 186.947 C 253.483 185.790,253.652 185.700,253.722 184.945 C 255.243 168.535,260.829 155.792,270.525 146.614 C 290.819 127.404,319.977 136.333,331.490 165.284 C 332.213 167.102,332.840 168.631,332.883 168.682 C 332.926 168.732,334.255 168.136,335.835 167.357 C 349.347 160.696,365.507 167.198,372.893 182.268 C 372.909 182.300,373.729 182.065,374.717 181.747 C 380.988 179.721,388.334 182.556,392.500 188.610 C 393.520 190.093,393.223 190.058,395.190 188.924 C 396.077 188.412,397.397 187.756,398.123 187.465 L 399.442 186.935 399.443 156.484 L 399.444 126.032 397.183 124.541 C 393.951 122.408,390.926 121.418,387.144 121.254 L 384.156 121.124 384.154 119.700 C 384.151 116.139,382.530 107.861,380.912 103.142 C 369.740 70.563,338.795 67.562,324.807 97.701 L 323.649 100.197 323.460 97.979 C 321.576 75.879,303.985 64.404,291.288 76.993 C 286.776 81.465,284.468 86.365,282.513 95.622 C 282.401 96.150,282.042 95.393,281.018 92.469 C 271.658 65.749,251.679 50.183,231.411 53.819 M139.848 133.985 C 130.461 139.159,123.502 151.009,121.046 166.002 L 120.668 168.311 120.810 166.227 C 121.575 154.956,126.749 143.843,134.151 137.568 C 136.021 135.983,140.460 133.143,141.052 133.153 C 141.215 133.156,140.673 133.530,139.848 133.985 " stroke="none" fill="#e6f3fc" fill-rule="evenodd"></path><path id="path3" d="M0.000 78.144 C 0.000 140.620,0.070 156.233,0.347 156.014 C 7.761 150.165,15.379 149.076,22.967 152.782 L 24.947 153.749 26.580 152.183 C 31.589 147.381,37.744 144.923,44.204 145.144 L 47.182 145.246 47.498 141.816 C 49.621 118.742,63.793 100.310,81.831 97.164 C 85.885 96.457,91.907 96.704,95.067 97.707 C 95.477 97.837,95.563 97.543,95.723 95.460 C 97.787 68.619,126.823 62.226,135.392 86.727 C 135.740 87.721,136.041 88.562,136.062 88.597 C 136.083 88.631,136.780 88.396,137.612 88.074 C 143.905 85.638,150.168 89.899,152.792 98.402 C 152.867 98.647,153.399 97.904,154.085 96.595 C 162.726 80.094,180.277 76.464,192.329 88.684 L 194.220 90.602 194.995 88.595 C 198.447 79.658,205.333 69.446,211.665 63.872 C 236.309 42.178,267.975 55.236,281.018 92.469 C 282.042 95.393,282.401 96.150,282.513 95.622 C 284.468 86.365,286.776 81.465,291.288 76.993 C 303.985 64.404,321.576 75.879,323.460 97.979 L 323.649 100.197 324.807 97.701 C 338.795 67.562,369.740 70.563,380.912 103.142 C 382.530 107.861,384.151 116.139,384.154 119.700 L 384.156 121.124 387.144 121.259 C 390.966 121.432,393.858 122.363,397.004 124.433 C 398.248 125.251,399.306 125.921,399.355 125.921 C 399.404 125.921,399.444 97.589,399.444 62.960 L 399.444 0.000 199.722 0.000 L 0.000 0.000 0.000 78.144 M288.395 137.049 C 269.484 141.024,256.076 159.546,253.722 184.945 C 253.652 185.700,253.483 185.790,249.960 186.947 C 236.672 191.312,223.949 202.297,216.651 215.707 C 215.728 217.402,215.689 217.405,214.925 215.832 C 202.671 190.611,175.059 180.913,153.441 194.237 L 151.635 195.350 150.300 194.201 C 125.766 173.071,94.170 173.623,70.887 195.587 C 69.807 196.606,68.886 197.390,68.840 197.330 C 68.793 197.269,68.461 196.720,68.102 196.108 C 64.264 189.574,57.620 186.054,51.244 187.177 C 47.416 187.851,43.225 190.397,41.005 193.397 L 40.176 194.517 37.809 192.273 C 27.342 182.350,14.456 177.582,1.709 178.914 L -0.000 179.092 -0.000 218.247 L 0.000 257.401 6.784 257.401 C 13.313 257.401,33.175 257.888,74.774 259.067 C 104.961 259.923,111.090 260.181,117.706 260.874 L 123.836 261.517 132.731 260.028 C 199.413 248.863,260.232 244.987,315.192 248.398 C 323.737 248.929,319.885 249.115,362.057 246.139 C 378.110 245.006,392.432 244.008,393.885 243.922 C 395.337 243.836,397.182 243.697,397.985 243.614 L 399.444 243.462 399.444 215.268 C 399.444 199.395,399.338 187.074,399.201 187.074 C 398.806 187.074,396.411 188.186,394.945 189.051 C 393.267 190.040,393.514 190.085,392.500 188.610 C 388.334 182.556,380.988 179.721,374.717 181.747 C 373.729 182.065,372.909 182.300,372.893 182.268 C 365.507 167.198,349.347 160.696,335.835 167.357 C 334.255 168.136,332.926 168.732,332.883 168.682 C 332.840 168.631,332.213 167.102,331.490 165.284 C 323.414 144.975,305.748 133.400,288.395 137.049 M319.206 280.095 C 318.736 280.477,318.785 280.499,319.805 280.356 C 320.417 280.271,321.845 280.199,322.979 280.198 C 325.725 280.194,325.401 280.029,322.264 279.835 C 320.241 279.710,319.614 279.764,319.206 280.095 " stroke="none" fill="#c7dffb" fill-rule="evenodd"></path><path id="path4" d="M393.954 243.972 C 394.222 244.042,394.659 244.042,394.927 243.972 C 395.195 243.902,394.976 243.845,394.441 243.845 C 393.905 243.845,393.687 243.902,393.954 243.972 M389.785 244.250 C 390.052 244.320,390.490 244.320,390.757 244.250 C 391.025 244.180,390.806 244.123,390.271 244.123 C 389.736 244.123,389.517 244.180,389.785 244.250 M385.893 244.528 C 386.161 244.598,386.598 244.598,386.866 244.528 C 387.133 244.458,386.915 244.401,386.379 244.401 C 385.844 244.401,385.625 244.458,385.893 244.528 M381.723 244.806 C 381.991 244.876,382.429 244.876,382.696 244.806 C 382.964 244.736,382.745 244.679,382.210 244.679 C 381.675 244.679,381.456 244.736,381.723 244.806 M377.832 245.084 C 378.099 245.154,378.537 245.154,378.805 245.084 C 379.072 245.014,378.853 244.957,378.318 244.957 C 377.783 244.957,377.564 245.014,377.832 245.084 M373.940 245.362 C 374.208 245.432,374.646 245.432,374.913 245.362 C 375.181 245.292,374.962 245.235,374.427 245.235 C 373.892 245.235,373.673 245.292,373.940 245.362 M370.049 245.640 C 370.316 245.710,370.754 245.710,371.022 245.640 C 371.289 245.570,371.070 245.513,370.535 245.513 C 370.000 245.513,369.781 245.570,370.049 245.640 M366.157 245.918 C 366.425 245.988,366.862 245.988,367.130 245.918 C 367.397 245.848,367.179 245.791,366.644 245.791 C 366.108 245.791,365.890 245.848,366.157 245.918 M362.265 246.196 C 362.533 246.266,362.971 246.266,363.238 246.196 C 363.506 246.126,363.287 246.069,362.752 246.069 C 362.217 246.069,361.998 246.126,362.265 246.196 M358.374 246.474 C 358.641 246.544,359.079 246.544,359.347 246.474 C 359.614 246.404,359.395 246.347,358.860 246.347 C 358.325 246.347,358.106 246.404,358.374 246.474 M354.482 246.752 C 354.750 246.822,355.188 246.822,355.455 246.752 C 355.723 246.682,355.504 246.625,354.969 246.625 C 354.434 246.625,354.215 246.682,354.482 246.752 M350.591 247.030 C 350.858 247.100,351.296 247.100,351.564 247.030 C 351.831 246.960,351.612 246.903,351.077 246.903 C 350.542 246.903,350.323 246.960,350.591 247.030 M270.535 247.324 C 273.707 247.369,278.899 247.369,282.071 247.324 C 285.243 247.280,282.648 247.243,276.303 247.243 C 269.958 247.243,267.363 247.280,270.535 247.324 M346.699 247.308 C 346.967 247.378,347.404 247.378,347.672 247.308 C 347.940 247.238,347.721 247.181,347.186 247.181 C 346.650 247.181,346.432 247.238,346.699 247.308 M255.115 247.598 C 255.769 247.657,256.770 247.656,257.339 247.596 C 257.908 247.536,257.373 247.488,256.150 247.489 C 254.927 247.490,254.461 247.539,255.115 247.598 M294.858 247.598 C 295.507 247.656,296.571 247.656,297.220 247.598 C 297.870 247.539,297.338 247.491,296.039 247.491 C 294.739 247.491,294.208 247.539,294.858 247.598 M342.808 247.586 C 343.075 247.656,343.513 247.656,343.780 247.586 C 344.048 247.516,343.829 247.459,343.294 247.459 C 342.759 247.459,342.540 247.516,342.808 247.586 M246.911 247.871 C 247.334 247.935,247.959 247.934,248.301 247.868 C 248.643 247.802,248.297 247.749,247.533 247.751 C 246.769 247.754,246.489 247.808,246.911 247.871 M302.784 247.871 C 303.206 247.935,303.831 247.934,304.173 247.868 C 304.515 247.802,304.170 247.749,303.405 247.751 C 302.641 247.754,302.361 247.808,302.784 247.871 M338.638 247.864 C 338.905 247.934,339.343 247.934,339.611 247.864 C 339.878 247.794,339.659 247.736,339.124 247.736 C 338.589 247.736,338.370 247.794,338.638 247.864 M240.796 248.149 C 241.219 248.213,241.844 248.212,242.186 248.146 C 242.528 248.080,242.182 248.027,241.418 248.029 C 240.653 248.032,240.374 248.086,240.796 248.149 M308.899 248.149 C 309.321 248.213,309.947 248.212,310.289 248.146 C 310.631 248.080,310.285 248.027,309.521 248.029 C 308.756 248.032,308.476 248.086,308.899 248.149 M334.746 248.142 C 335.014 248.211,335.452 248.211,335.719 248.142 C 335.987 248.072,335.768 248.014,335.233 248.014 C 334.698 248.014,334.479 248.072,334.746 248.142 M235.094 248.424 C 235.438 248.490,236.001 248.490,236.345 248.424 C 236.689 248.358,236.407 248.304,235.719 248.304 C 235.031 248.304,234.750 248.358,235.094 248.424 M313.621 248.420 C 313.888 248.489,314.326 248.489,314.593 248.420 C 314.861 248.350,314.642 248.292,314.107 248.292 C 313.572 248.292,313.353 248.350,313.621 248.420 M330.577 248.420 C 330.844 248.489,331.282 248.489,331.550 248.420 C 331.817 248.350,331.598 248.292,331.063 248.292 C 330.528 248.292,330.309 248.350,330.577 248.420 M230.650 248.703 C 230.995 248.769,231.496 248.766,231.761 248.697 C 232.027 248.627,231.744 248.573,231.133 248.576 C 230.521 248.579,230.304 248.636,230.650 248.703 M317.932 248.703 C 318.278 248.769,318.778 248.766,319.044 248.697 C 319.310 248.627,319.027 248.573,318.416 248.576 C 317.804 248.579,317.587 248.636,317.932 248.703 M326.271 248.703 C 326.617 248.769,327.118 248.766,327.383 248.697 C 327.649 248.627,327.366 248.573,326.755 248.576 C 326.143 248.579,325.926 248.636,326.271 248.703 M226.202 248.980 C 226.548 249.047,227.048 249.044,227.314 248.975 C 227.580 248.905,227.297 248.851,226.685 248.854 C 226.074 248.857,225.856 248.914,226.202 248.980 M221.890 249.253 C 222.158 249.323,222.596 249.323,222.863 249.253 C 223.131 249.184,222.912 249.126,222.377 249.126 C 221.842 249.126,221.623 249.184,221.890 249.253 M218.277 249.531 C 218.544 249.601,218.982 249.601,219.249 249.531 C 219.517 249.462,219.298 249.404,218.763 249.404 C 218.228 249.404,218.009 249.462,218.277 249.531 M15.080 257.603 C 15.653 257.663,16.591 257.663,17.165 257.603 C 17.738 257.543,17.269 257.494,16.122 257.494 C 14.976 257.494,14.507 257.543,15.080 257.603 M26.054 257.880 C 26.547 257.941,27.423 257.942,27.999 257.882 C 28.576 257.822,28.172 257.771,27.102 257.770 C 26.032 257.769,25.560 257.818,26.054 257.880 M36.484 258.159 C 37.057 258.219,37.995 258.219,38.568 258.159 C 39.142 258.099,38.673 258.050,37.526 258.050 C 36.379 258.050,35.910 258.099,36.484 258.159 M46.901 258.436 C 47.395 258.497,48.270 258.498,48.847 258.438 C 49.424 258.378,49.020 258.327,47.950 258.326 C 46.880 258.325,46.408 258.374,46.901 258.436 M57.186 258.713 C 57.680 258.775,58.555 258.776,59.132 258.716 C 59.709 258.656,59.305 258.605,58.235 258.604 C 57.165 258.603,56.693 258.652,57.186 258.713 M67.193 258.991 C 67.687 259.053,68.562 259.054,69.139 258.994 C 69.716 258.934,69.312 258.883,68.242 258.882 C 67.172 258.881,66.700 258.930,67.193 258.991 M77.206 259.270 C 77.703 259.332,78.516 259.332,79.013 259.270 C 79.510 259.208,79.104 259.158,78.110 259.158 C 77.116 259.158,76.710 259.208,77.206 259.270 M86.940 259.548 C 87.440 259.610,88.190 259.609,88.608 259.545 C 89.026 259.482,88.617 259.431,87.700 259.433 C 86.782 259.434,86.441 259.486,86.940 259.548 M96.113 259.826 C 96.613 259.888,97.364 259.887,97.781 259.823 C 98.199 259.760,97.790 259.709,96.873 259.711 C 95.956 259.712,95.614 259.764,96.113 259.826 M104.587 260.102 C 105.007 260.165,105.695 260.165,106.115 260.102 C 106.536 260.038,106.192 259.986,105.351 259.986 C 104.510 259.986,104.166 260.038,104.587 260.102 M321.543 279.835 C 321.887 279.901,322.450 279.901,322.794 279.835 C 323.138 279.769,322.856 279.714,322.168 279.714 C 321.480 279.714,321.199 279.769,321.543 279.835 M325.295 280.108 C 325.563 280.178,326.001 280.178,326.268 280.108 C 326.536 280.038,326.317 279.981,325.782 279.981 C 325.247 279.981,325.028 280.038,325.295 280.108 M320.709 280.391 C 321.053 280.457,321.616 280.457,321.960 280.391 C 322.304 280.324,322.022 280.270,321.334 280.270 C 320.646 280.270,320.365 280.324,320.709 280.391 M399.302 331.063 C 399.302 356.366,399.335 366.716,399.375 354.065 C 399.415 341.414,399.415 320.712,399.375 308.061 C 399.335 295.410,399.302 305.761,399.302 331.063 " stroke="none" fill="#c4ebbc" fill-rule="evenodd"></path></g></svg>